%TF.GenerationSoftware,KiCad,Pcbnew,7.99.0-779-ga24a63e416*%
%TF.CreationDate,2023-06-04T17:09:06+04:00*%
%TF.ProjectId,mt36-08,6d743336-2d30-4382-9e6b-696361645f70,rev?*%
%TF.SameCoordinates,Original*%
%TF.FileFunction,Legend,Top*%
%TF.FilePolarity,Positive*%
%FSLAX46Y46*%
G04 Gerber Fmt 4.6, Leading zero omitted, Abs format (unit mm)*
G04 Created by KiCad (PCBNEW 7.99.0-779-ga24a63e416) date 2023-06-04 17:09:06*
%MOMM*%
%LPD*%
G01*
G04 APERTURE LIST*
%ADD10C,0.150000*%
%ADD11C,0.100000*%
%ADD12C,0.120000*%
%ADD13C,0.127000*%
%ADD14C,0.200000*%
G04 APERTURE END LIST*
D10*
%TO.C,C2*%
X99478333Y-89032380D02*
X99430714Y-89080000D01*
X99430714Y-89080000D02*
X99287857Y-89127619D01*
X99287857Y-89127619D02*
X99192619Y-89127619D01*
X99192619Y-89127619D02*
X99049762Y-89080000D01*
X99049762Y-89080000D02*
X98954524Y-88984761D01*
X98954524Y-88984761D02*
X98906905Y-88889523D01*
X98906905Y-88889523D02*
X98859286Y-88699047D01*
X98859286Y-88699047D02*
X98859286Y-88556190D01*
X98859286Y-88556190D02*
X98906905Y-88365714D01*
X98906905Y-88365714D02*
X98954524Y-88270476D01*
X98954524Y-88270476D02*
X99049762Y-88175238D01*
X99049762Y-88175238D02*
X99192619Y-88127619D01*
X99192619Y-88127619D02*
X99287857Y-88127619D01*
X99287857Y-88127619D02*
X99430714Y-88175238D01*
X99430714Y-88175238D02*
X99478333Y-88222857D01*
X99859286Y-88222857D02*
X99906905Y-88175238D01*
X99906905Y-88175238D02*
X100002143Y-88127619D01*
X100002143Y-88127619D02*
X100240238Y-88127619D01*
X100240238Y-88127619D02*
X100335476Y-88175238D01*
X100335476Y-88175238D02*
X100383095Y-88222857D01*
X100383095Y-88222857D02*
X100430714Y-88318095D01*
X100430714Y-88318095D02*
X100430714Y-88413333D01*
X100430714Y-88413333D02*
X100383095Y-88556190D01*
X100383095Y-88556190D02*
X99811667Y-89127619D01*
X99811667Y-89127619D02*
X100430714Y-89127619D01*
%TO.C,R2*%
X93051333Y-88854619D02*
X92718000Y-88378428D01*
X92479905Y-88854619D02*
X92479905Y-87854619D01*
X92479905Y-87854619D02*
X92860857Y-87854619D01*
X92860857Y-87854619D02*
X92956095Y-87902238D01*
X92956095Y-87902238D02*
X93003714Y-87949857D01*
X93003714Y-87949857D02*
X93051333Y-88045095D01*
X93051333Y-88045095D02*
X93051333Y-88187952D01*
X93051333Y-88187952D02*
X93003714Y-88283190D01*
X93003714Y-88283190D02*
X92956095Y-88330809D01*
X92956095Y-88330809D02*
X92860857Y-88378428D01*
X92860857Y-88378428D02*
X92479905Y-88378428D01*
X93432286Y-87949857D02*
X93479905Y-87902238D01*
X93479905Y-87902238D02*
X93575143Y-87854619D01*
X93575143Y-87854619D02*
X93813238Y-87854619D01*
X93813238Y-87854619D02*
X93908476Y-87902238D01*
X93908476Y-87902238D02*
X93956095Y-87949857D01*
X93956095Y-87949857D02*
X94003714Y-88045095D01*
X94003714Y-88045095D02*
X94003714Y-88140333D01*
X94003714Y-88140333D02*
X93956095Y-88283190D01*
X93956095Y-88283190D02*
X93384667Y-88854619D01*
X93384667Y-88854619D02*
X94003714Y-88854619D01*
%TO.C,L2*%
X108393333Y-80083619D02*
X107917143Y-80083619D01*
X107917143Y-80083619D02*
X107917143Y-79083619D01*
X108679048Y-79178857D02*
X108726667Y-79131238D01*
X108726667Y-79131238D02*
X108821905Y-79083619D01*
X108821905Y-79083619D02*
X109060000Y-79083619D01*
X109060000Y-79083619D02*
X109155238Y-79131238D01*
X109155238Y-79131238D02*
X109202857Y-79178857D01*
X109202857Y-79178857D02*
X109250476Y-79274095D01*
X109250476Y-79274095D02*
X109250476Y-79369333D01*
X109250476Y-79369333D02*
X109202857Y-79512190D01*
X109202857Y-79512190D02*
X108631429Y-80083619D01*
X108631429Y-80083619D02*
X109250476Y-80083619D01*
%TO.C,J1*%
X87310666Y-81776619D02*
X87310666Y-82490904D01*
X87310666Y-82490904D02*
X87263047Y-82633761D01*
X87263047Y-82633761D02*
X87167809Y-82729000D01*
X87167809Y-82729000D02*
X87024952Y-82776619D01*
X87024952Y-82776619D02*
X86929714Y-82776619D01*
X88310666Y-82776619D02*
X87739238Y-82776619D01*
X88024952Y-82776619D02*
X88024952Y-81776619D01*
X88024952Y-81776619D02*
X87929714Y-81919476D01*
X87929714Y-81919476D02*
X87834476Y-82014714D01*
X87834476Y-82014714D02*
X87739238Y-82062333D01*
D11*
%TO.C,J3*%
X111630666Y-81885619D02*
X111630666Y-82599904D01*
X111630666Y-82599904D02*
X111583047Y-82742761D01*
X111583047Y-82742761D02*
X111487809Y-82838000D01*
X111487809Y-82838000D02*
X111344952Y-82885619D01*
X111344952Y-82885619D02*
X111249714Y-82885619D01*
X112011619Y-81885619D02*
X112630666Y-81885619D01*
X112630666Y-81885619D02*
X112297333Y-82266571D01*
X112297333Y-82266571D02*
X112440190Y-82266571D01*
X112440190Y-82266571D02*
X112535428Y-82314190D01*
X112535428Y-82314190D02*
X112583047Y-82361809D01*
X112583047Y-82361809D02*
X112630666Y-82457047D01*
X112630666Y-82457047D02*
X112630666Y-82695142D01*
X112630666Y-82695142D02*
X112583047Y-82790380D01*
X112583047Y-82790380D02*
X112535428Y-82838000D01*
X112535428Y-82838000D02*
X112440190Y-82885619D01*
X112440190Y-82885619D02*
X112154476Y-82885619D01*
X112154476Y-82885619D02*
X112059238Y-82838000D01*
X112059238Y-82838000D02*
X112011619Y-82790380D01*
D10*
%TO.C,U1*%
X104090095Y-82721619D02*
X104090095Y-83531142D01*
X104090095Y-83531142D02*
X104137714Y-83626380D01*
X104137714Y-83626380D02*
X104185333Y-83674000D01*
X104185333Y-83674000D02*
X104280571Y-83721619D01*
X104280571Y-83721619D02*
X104471047Y-83721619D01*
X104471047Y-83721619D02*
X104566285Y-83674000D01*
X104566285Y-83674000D02*
X104613904Y-83626380D01*
X104613904Y-83626380D02*
X104661523Y-83531142D01*
X104661523Y-83531142D02*
X104661523Y-82721619D01*
X105661523Y-83721619D02*
X105090095Y-83721619D01*
X105375809Y-83721619D02*
X105375809Y-82721619D01*
X105375809Y-82721619D02*
X105280571Y-82864476D01*
X105280571Y-82864476D02*
X105185333Y-82959714D01*
X105185333Y-82959714D02*
X105090095Y-83007333D01*
%TO.C,R1*%
X95795333Y-83567619D02*
X95462000Y-83091428D01*
X95223905Y-83567619D02*
X95223905Y-82567619D01*
X95223905Y-82567619D02*
X95604857Y-82567619D01*
X95604857Y-82567619D02*
X95700095Y-82615238D01*
X95700095Y-82615238D02*
X95747714Y-82662857D01*
X95747714Y-82662857D02*
X95795333Y-82758095D01*
X95795333Y-82758095D02*
X95795333Y-82900952D01*
X95795333Y-82900952D02*
X95747714Y-82996190D01*
X95747714Y-82996190D02*
X95700095Y-83043809D01*
X95700095Y-83043809D02*
X95604857Y-83091428D01*
X95604857Y-83091428D02*
X95223905Y-83091428D01*
X96747714Y-83567619D02*
X96176286Y-83567619D01*
X96462000Y-83567619D02*
X96462000Y-82567619D01*
X96462000Y-82567619D02*
X96366762Y-82710476D01*
X96366762Y-82710476D02*
X96271524Y-82805714D01*
X96271524Y-82805714D02*
X96176286Y-82853333D01*
%TO.C,D1*%
X91680667Y-74307666D02*
X91680667Y-72907666D01*
X91680667Y-72907666D02*
X92014000Y-72907666D01*
X92014000Y-72907666D02*
X92214000Y-72974333D01*
X92214000Y-72974333D02*
X92347334Y-73107666D01*
X92347334Y-73107666D02*
X92414000Y-73241000D01*
X92414000Y-73241000D02*
X92480667Y-73507666D01*
X92480667Y-73507666D02*
X92480667Y-73707666D01*
X92480667Y-73707666D02*
X92414000Y-73974333D01*
X92414000Y-73974333D02*
X92347334Y-74107666D01*
X92347334Y-74107666D02*
X92214000Y-74241000D01*
X92214000Y-74241000D02*
X92014000Y-74307666D01*
X92014000Y-74307666D02*
X91680667Y-74307666D01*
X93814000Y-74307666D02*
X93014000Y-74307666D01*
X93414000Y-74307666D02*
X93414000Y-72907666D01*
X93414000Y-72907666D02*
X93280667Y-73107666D01*
X93280667Y-73107666D02*
X93147334Y-73241000D01*
X93147334Y-73241000D02*
X93014000Y-73307666D01*
D11*
%TO.C,J2*%
X111630666Y-74773619D02*
X111630666Y-75487904D01*
X111630666Y-75487904D02*
X111583047Y-75630761D01*
X111583047Y-75630761D02*
X111487809Y-75726000D01*
X111487809Y-75726000D02*
X111344952Y-75773619D01*
X111344952Y-75773619D02*
X111249714Y-75773619D01*
X112059238Y-74868857D02*
X112106857Y-74821238D01*
X112106857Y-74821238D02*
X112202095Y-74773619D01*
X112202095Y-74773619D02*
X112440190Y-74773619D01*
X112440190Y-74773619D02*
X112535428Y-74821238D01*
X112535428Y-74821238D02*
X112583047Y-74868857D01*
X112583047Y-74868857D02*
X112630666Y-74964095D01*
X112630666Y-74964095D02*
X112630666Y-75059333D01*
X112630666Y-75059333D02*
X112583047Y-75202190D01*
X112583047Y-75202190D02*
X112011619Y-75773619D01*
X112011619Y-75773619D02*
X112630666Y-75773619D01*
D12*
%TO.C,C2*%
X98481000Y-84964748D02*
X98481000Y-86387252D01*
X100301000Y-84964748D02*
X100301000Y-86387252D01*
%TO.C,R2*%
X92483000Y-85975564D02*
X92483000Y-85521436D01*
X93953000Y-85975564D02*
X93953000Y-85521436D01*
%TO.C,L2*%
X99780000Y-74024000D02*
X107180000Y-74024000D01*
X99780000Y-76324000D02*
X99780000Y-74024000D01*
X99780000Y-81424000D02*
X99780000Y-79124000D01*
X107180000Y-74024000D02*
X107180000Y-76324000D01*
X107180000Y-79124000D02*
X107180000Y-81424000D01*
X107180000Y-81424000D02*
X99780000Y-81424000D01*
%TO.C,J1*%
X72194000Y-73904000D02*
X72194000Y-88624000D01*
X80734000Y-73904000D02*
X72194000Y-73904000D01*
X80734000Y-88624000D02*
X72194000Y-88624000D01*
X84434000Y-88624000D02*
X86414000Y-88624000D01*
X86414000Y-73904000D02*
X84434000Y-73904000D01*
X86414000Y-73904000D02*
X86414000Y-88624000D01*
X86794000Y-77764000D02*
X87294000Y-78264000D01*
X87294000Y-77264000D02*
X86794000Y-77764000D01*
X87294000Y-78264000D02*
X87294000Y-77264000D01*
%TO.C,U1*%
X103460500Y-84099000D02*
X101660500Y-84099000D01*
X103460500Y-84099000D02*
X104260500Y-84099000D01*
X103460500Y-87219000D02*
X102660500Y-87219000D01*
X103460500Y-87219000D02*
X104260500Y-87219000D01*
%TO.C,R1*%
X95227000Y-85521436D02*
X95227000Y-85975564D01*
X96697000Y-85521436D02*
X96697000Y-85975564D01*
D13*
%TO.C,D1*%
X89831500Y-74901000D02*
X89831500Y-75941000D01*
X89831500Y-79761000D02*
X89831500Y-80801000D01*
X89831500Y-80801000D02*
X96706500Y-80801000D01*
X96706500Y-74901000D02*
X89831500Y-74901000D01*
X96706500Y-75941000D02*
X96706500Y-74901000D01*
X96706500Y-80801000D02*
X96706500Y-79761000D01*
D14*
X88169000Y-77851000D02*
G75*
G03*
X88169000Y-77851000I-100000J0D01*
G01*
D12*
%TO.C,C1*%
X106863000Y-84964748D02*
X106863000Y-86387252D01*
X108683000Y-84964748D02*
X108683000Y-86387252D01*
%TD*%
M02*
