%TF.GenerationSoftware,KiCad,Pcbnew,7.99.0-779-ga24a63e416*%
%TF.CreationDate,2023-06-04T17:09:06+04:00*%
%TF.ProjectId,mt36-08,6d743336-2d30-4382-9e6b-696361645f70,rev?*%
%TF.SameCoordinates,Original*%
%TF.FileFunction,Copper,L1,Top*%
%TF.FilePolarity,Positive*%
%FSLAX46Y46*%
G04 Gerber Fmt 4.6, Leading zero omitted, Abs format (unit mm)*
G04 Created by KiCad (PCBNEW 7.99.0-779-ga24a63e416) date 2023-06-04 17:09:06*
%MOMM*%
%LPD*%
G01*
G04 APERTURE LIST*
G04 Aperture macros list*
%AMRoundRect*
0 Rectangle with rounded corners*
0 $1 Rounding radius*
0 $2 $3 $4 $5 $6 $7 $8 $9 X,Y pos of 4 corners*
0 Add a 4 corners polygon primitive as box body*
4,1,4,$2,$3,$4,$5,$6,$7,$8,$9,$2,$3,0*
0 Add four circle primitives for the rounded corners*
1,1,$1+$1,$2,$3*
1,1,$1+$1,$4,$5*
1,1,$1+$1,$6,$7*
1,1,$1+$1,$8,$9*
0 Add four rect primitives between the rounded corners*
20,1,$1+$1,$2,$3,$4,$5,0*
20,1,$1+$1,$4,$5,$6,$7,0*
20,1,$1+$1,$6,$7,$8,$9,0*
20,1,$1+$1,$8,$9,$2,$3,0*%
G04 Aperture macros list end*
%TA.AperFunction,SMDPad,CuDef*%
%ADD10RoundRect,0.250000X-0.650000X0.325000X-0.650000X-0.325000X0.650000X-0.325000X0.650000X0.325000X0*%
%TD*%
%TA.AperFunction,SMDPad,CuDef*%
%ADD11RoundRect,0.250000X0.450000X-0.262500X0.450000X0.262500X-0.450000X0.262500X-0.450000X-0.262500X0*%
%TD*%
%TA.AperFunction,SMDPad,CuDef*%
%ADD12R,1.500000X2.200000*%
%TD*%
%TA.AperFunction,ComponentPad*%
%ADD13R,1.524000X1.524000*%
%TD*%
%TA.AperFunction,ComponentPad*%
%ADD14C,1.524000*%
%TD*%
%TA.AperFunction,ComponentPad*%
%ADD15C,3.500000*%
%TD*%
%TA.AperFunction,SMDPad,CuDef*%
%ADD16RoundRect,0.625000X-1.270000X-0.625000X1.270000X-0.625000X1.270000X0.625000X-1.270000X0.625000X0*%
%TD*%
%TA.AperFunction,SMDPad,CuDef*%
%ADD17RoundRect,0.150000X-0.512500X-0.150000X0.512500X-0.150000X0.512500X0.150000X-0.512500X0.150000X0*%
%TD*%
%TA.AperFunction,SMDPad,CuDef*%
%ADD18RoundRect,0.250000X-0.450000X0.262500X-0.450000X-0.262500X0.450000X-0.262500X0.450000X0.262500X0*%
%TD*%
%TA.AperFunction,SMDPad,CuDef*%
%ADD19R,2.250000X3.180000*%
%TD*%
%TA.AperFunction,Conductor*%
%ADD20C,0.600000*%
%TD*%
%TA.AperFunction,Conductor*%
%ADD21C,1.300000*%
%TD*%
G04 APERTURE END LIST*
D10*
%TO.P,C2,1*%
%TO.N,/+5V*%
X99391000Y-84201000D03*
%TO.P,C2,2*%
%TO.N,GND*%
X99391000Y-87151000D03*
%TD*%
D11*
%TO.P,R2,1*%
%TO.N,Net-(U1-FB)*%
X93218000Y-86661000D03*
%TO.P,R2,2*%
%TO.N,GND*%
X93218000Y-84836000D03*
%TD*%
D12*
%TO.P,L2,1*%
%TO.N,/SW*%
X100280000Y-77724000D03*
%TO.P,L2,2*%
%TO.N,/+3.7V*%
X106680000Y-77724000D03*
%TD*%
D13*
%TO.P,J1,1,VBUS*%
%TO.N,/+5V*%
X85294000Y-77764000D03*
D14*
%TO.P,J1,2,D-*%
%TO.N,unconnected-(J1-D--Pad2)*%
X85294000Y-80264000D03*
%TO.P,J1,3,D+*%
%TO.N,unconnected-(J1-D+-Pad3)*%
X85294000Y-82264000D03*
%TO.P,J1,4,GND*%
%TO.N,GND*%
X85294000Y-84764000D03*
D15*
%TO.P,J1,5,Shield*%
%TO.N,unconnected-(J1-Shield-Pad5)*%
X82584000Y-74694000D03*
X82584000Y-87834000D03*
%TD*%
D16*
%TO.P,J3,1,Pin_1*%
%TO.N,GND*%
X111964000Y-84963000D03*
%TD*%
D17*
%TO.P,U1,1,SW*%
%TO.N,/SW*%
X102323000Y-84709000D03*
%TO.P,U1,2,GND*%
%TO.N,GND*%
X102323000Y-85659000D03*
%TO.P,U1,3,FB*%
%TO.N,Net-(U1-FB)*%
X102323000Y-86609000D03*
%TO.P,U1,4,EN*%
%TO.N,/+3.7V*%
X104598000Y-86609000D03*
%TO.P,U1,5,IN*%
X104598000Y-85659000D03*
%TO.P,U1,6,NC*%
%TO.N,unconnected-(U1-NC-Pad6)*%
X104598000Y-84709000D03*
%TD*%
D18*
%TO.P,R1,1*%
%TO.N,/+5V*%
X95962000Y-84836000D03*
%TO.P,R1,2*%
%TO.N,Net-(U1-FB)*%
X95962000Y-86661000D03*
%TD*%
D19*
%TO.P,D1,A*%
%TO.N,/SW*%
X96724000Y-77851000D03*
%TO.P,D1,C*%
%TO.N,/+5V*%
X89814000Y-77851000D03*
%TD*%
D10*
%TO.P,C1,1*%
%TO.N,/+3.7V*%
X107773000Y-84201000D03*
%TO.P,C1,2*%
%TO.N,GND*%
X107773000Y-87151000D03*
%TD*%
D16*
%TO.P,J2,1,Pin_1*%
%TO.N,/+3.7V*%
X111964000Y-77851000D03*
%TD*%
D20*
%TO.N,Net-(U1-FB)*%
X95882000Y-86741000D02*
X96898000Y-85725000D01*
X100534000Y-85725000D02*
X101418000Y-86609000D01*
X96898000Y-85725000D02*
X100534000Y-85725000D01*
X93295000Y-86741000D02*
X95882000Y-86741000D01*
X101418000Y-86609000D02*
X102323000Y-86609000D01*
D21*
%TO.N,/+5V*%
X89814000Y-77851000D02*
X85381000Y-77851000D01*
X85381000Y-77851000D02*
X85294000Y-77764000D01*
D20*
X95962000Y-84789000D02*
X98803000Y-84789000D01*
X98803000Y-84789000D02*
X99391000Y-84201000D01*
X95962000Y-83999000D02*
X89814000Y-77851000D01*
X95962000Y-84789000D02*
X95962000Y-83999000D01*
%TO.N,/SW*%
X102323000Y-79767000D02*
X100280000Y-77724000D01*
D21*
X100153000Y-77851000D02*
X100280000Y-77724000D01*
X96724000Y-77851000D02*
X100153000Y-77851000D01*
D20*
X102323000Y-84709000D02*
X102323000Y-79767000D01*
%TO.N,/+3.7V*%
X104598000Y-86609000D02*
X104598000Y-85659000D01*
D21*
X111837000Y-77724000D02*
X111964000Y-77851000D01*
X106680000Y-77724000D02*
X111837000Y-77724000D01*
D20*
X106315000Y-85659000D02*
X107773000Y-84201000D01*
X107773000Y-81661000D02*
X106680000Y-80568000D01*
X107773000Y-84201000D02*
X107773000Y-81661000D01*
X106680000Y-80568000D02*
X106680000Y-77724000D01*
X104598000Y-85659000D02*
X106315000Y-85659000D01*
%TD*%
%TA.AperFunction,Conductor*%
%TO.N,GND*%
G36*
X114368609Y-72537482D02*
G01*
X114415081Y-72589657D01*
X114427000Y-72642703D01*
X114427000Y-76576217D01*
X114407315Y-76643256D01*
X114354511Y-76689011D01*
X114285353Y-76698955D01*
X114221797Y-76669930D01*
X114200309Y-76645719D01*
X114105842Y-76506143D01*
X113953856Y-76354157D01*
X113775848Y-76233679D01*
X113578258Y-76149065D01*
X113368223Y-76103375D01*
X113321797Y-76100609D01*
X113321758Y-76100607D01*
X113319948Y-76100500D01*
X110608052Y-76100500D01*
X110606242Y-76100607D01*
X110606202Y-76100609D01*
X110559776Y-76103375D01*
X110349741Y-76149065D01*
X110152151Y-76233679D01*
X109974143Y-76354157D01*
X109822157Y-76506143D01*
X109813455Y-76519002D01*
X109759578Y-76563488D01*
X109710764Y-76573500D01*
X108031439Y-76573500D01*
X107964400Y-76553815D01*
X107918645Y-76501011D01*
X107915257Y-76492833D01*
X107912534Y-76485532D01*
X107873796Y-76381669D01*
X107787546Y-76266454D01*
X107672331Y-76180204D01*
X107537483Y-76129909D01*
X107477873Y-76123500D01*
X107474550Y-76123500D01*
X105885439Y-76123500D01*
X105885420Y-76123500D01*
X105882128Y-76123501D01*
X105878848Y-76123853D01*
X105878840Y-76123854D01*
X105822515Y-76129909D01*
X105687669Y-76180204D01*
X105572454Y-76266454D01*
X105486204Y-76381668D01*
X105435910Y-76516515D01*
X105435909Y-76516517D01*
X105429500Y-76576127D01*
X105429500Y-76579448D01*
X105429500Y-76579449D01*
X105429500Y-78868560D01*
X105429500Y-78868578D01*
X105429501Y-78871872D01*
X105429853Y-78875152D01*
X105429854Y-78875159D01*
X105435909Y-78931484D01*
X105450198Y-78969795D01*
X105486204Y-79066331D01*
X105572454Y-79181546D01*
X105687669Y-79267796D01*
X105782174Y-79303044D01*
X105798832Y-79309257D01*
X105854766Y-79351128D01*
X105879183Y-79416593D01*
X105879499Y-79425439D01*
X105879500Y-80477805D01*
X105879500Y-80658195D01*
X105888017Y-80695518D01*
X105890345Y-80709219D01*
X105894631Y-80747252D01*
X105907272Y-80783380D01*
X105911119Y-80796736D01*
X105919638Y-80834058D01*
X105936250Y-80868553D01*
X105941570Y-80881398D01*
X105954209Y-80917520D01*
X105964770Y-80934327D01*
X105974576Y-80949933D01*
X105981298Y-80962095D01*
X105997908Y-80996586D01*
X106021772Y-81026510D01*
X106029818Y-81037850D01*
X106050184Y-81070262D01*
X106936181Y-81956259D01*
X106969666Y-82017582D01*
X106972500Y-82043940D01*
X106972500Y-83045698D01*
X106952815Y-83112737D01*
X106900011Y-83158492D01*
X106887505Y-83163404D01*
X106803664Y-83191186D01*
X106654342Y-83283288D01*
X106530288Y-83407342D01*
X106438186Y-83556665D01*
X106383000Y-83723202D01*
X106372819Y-83822858D01*
X106372817Y-83822878D01*
X106372500Y-83825991D01*
X106372500Y-83829139D01*
X106372500Y-84418059D01*
X106352815Y-84485098D01*
X106336181Y-84505740D01*
X106019741Y-84822181D01*
X105958418Y-84855666D01*
X105932060Y-84858500D01*
X105885000Y-84858500D01*
X105817961Y-84838815D01*
X105772206Y-84786011D01*
X105761000Y-84734500D01*
X105761000Y-84495751D01*
X105761000Y-84493306D01*
X105758098Y-84456431D01*
X105712244Y-84298602D01*
X105628581Y-84157135D01*
X105512365Y-84040919D01*
X105512360Y-84040916D01*
X105370897Y-83957255D01*
X105213072Y-83911402D01*
X105178628Y-83908691D01*
X105178614Y-83908690D01*
X105176194Y-83908500D01*
X104019806Y-83908500D01*
X104017386Y-83908690D01*
X104017371Y-83908691D01*
X103982927Y-83911402D01*
X103825102Y-83957255D01*
X103683634Y-84040919D01*
X103567419Y-84157134D01*
X103567231Y-84157453D01*
X103565271Y-84159282D01*
X103556342Y-84168212D01*
X103556035Y-84167905D01*
X103516161Y-84205135D01*
X103447419Y-84217638D01*
X103382830Y-84190991D01*
X103353769Y-84157453D01*
X103353582Y-84157137D01*
X103353581Y-84157135D01*
X103237365Y-84040919D01*
X103237364Y-84040918D01*
X103237362Y-84040916D01*
X103184378Y-84009581D01*
X103136695Y-83958512D01*
X103123500Y-83902850D01*
X103123500Y-79676803D01*
X103114982Y-79639488D01*
X103112655Y-79625800D01*
X103108368Y-79587745D01*
X103095724Y-79551610D01*
X103091875Y-79538249D01*
X103091324Y-79535837D01*
X103083359Y-79500939D01*
X103066754Y-79466458D01*
X103061433Y-79453614D01*
X103048789Y-79417478D01*
X103028418Y-79385058D01*
X103021698Y-79372899D01*
X103005091Y-79338413D01*
X103005090Y-79338412D01*
X103005090Y-79338411D01*
X102981225Y-79308486D01*
X102973177Y-79297143D01*
X102952816Y-79264738D01*
X102883933Y-79195855D01*
X102825262Y-79137184D01*
X102825261Y-79137184D01*
X102807821Y-79119743D01*
X102807819Y-79119742D01*
X101566818Y-77878740D01*
X101533333Y-77817417D01*
X101530499Y-77791059D01*
X101530499Y-76579439D01*
X101530499Y-76579438D01*
X101530499Y-76576128D01*
X101524091Y-76516517D01*
X101473796Y-76381669D01*
X101387546Y-76266454D01*
X101272331Y-76180204D01*
X101137483Y-76129909D01*
X101077873Y-76123500D01*
X101074550Y-76123500D01*
X99485439Y-76123500D01*
X99485420Y-76123500D01*
X99482128Y-76123501D01*
X99478848Y-76123853D01*
X99478840Y-76123854D01*
X99422515Y-76129909D01*
X99287669Y-76180204D01*
X99172454Y-76266454D01*
X99086204Y-76381668D01*
X99035910Y-76516515D01*
X99035909Y-76516517D01*
X99029500Y-76576127D01*
X99029500Y-76579439D01*
X99029322Y-76582768D01*
X99029488Y-76576537D01*
X99009815Y-76643539D01*
X98957011Y-76689294D01*
X98905500Y-76700500D01*
X98473499Y-76700500D01*
X98406460Y-76680815D01*
X98360705Y-76628011D01*
X98349499Y-76576500D01*
X98349499Y-76216439D01*
X98349499Y-76216438D01*
X98349499Y-76213128D01*
X98343091Y-76153517D01*
X98292796Y-76018669D01*
X98206546Y-75903454D01*
X98091331Y-75817204D01*
X97956483Y-75766909D01*
X97896873Y-75760500D01*
X97893550Y-75760500D01*
X95554439Y-75760500D01*
X95554420Y-75760500D01*
X95551128Y-75760501D01*
X95547848Y-75760853D01*
X95547840Y-75760854D01*
X95491515Y-75766909D01*
X95356669Y-75817204D01*
X95241454Y-75903454D01*
X95155204Y-76018668D01*
X95104910Y-76153515D01*
X95104909Y-76153517D01*
X95098500Y-76213127D01*
X95098500Y-76216448D01*
X95098500Y-76216449D01*
X95098500Y-79485560D01*
X95098500Y-79485578D01*
X95098501Y-79488872D01*
X95098853Y-79492152D01*
X95098854Y-79492159D01*
X95104909Y-79548484D01*
X95119553Y-79587745D01*
X95155204Y-79683331D01*
X95241454Y-79798546D01*
X95356669Y-79884796D01*
X95491517Y-79935091D01*
X95551127Y-79941500D01*
X97896872Y-79941499D01*
X97956483Y-79935091D01*
X98091331Y-79884796D01*
X98206546Y-79798546D01*
X98292796Y-79683331D01*
X98343091Y-79548483D01*
X98349500Y-79488873D01*
X98349500Y-79125500D01*
X98369185Y-79058461D01*
X98421989Y-79012706D01*
X98473500Y-79001500D01*
X98975928Y-79001500D01*
X99042967Y-79021185D01*
X99072000Y-79054691D01*
X99075519Y-79052058D01*
X99139244Y-79137184D01*
X99172454Y-79181546D01*
X99287669Y-79267796D01*
X99422517Y-79318091D01*
X99482127Y-79324500D01*
X100697059Y-79324499D01*
X100764098Y-79344184D01*
X100784740Y-79360818D01*
X101486180Y-80062258D01*
X101519665Y-80123581D01*
X101522499Y-80149939D01*
X101522500Y-83902850D01*
X101502815Y-83969889D01*
X101461622Y-84009581D01*
X101408637Y-84040916D01*
X101292418Y-84157136D01*
X101208755Y-84298602D01*
X101162902Y-84456427D01*
X101160191Y-84490871D01*
X101160190Y-84490886D01*
X101160000Y-84493306D01*
X101160000Y-84924694D01*
X101160191Y-84927127D01*
X101160192Y-84927140D01*
X101160733Y-84934017D01*
X101146367Y-85002393D01*
X101097313Y-85052148D01*
X101029148Y-85067485D01*
X100975659Y-85047965D01*
X100975175Y-85048971D01*
X100965043Y-85044092D01*
X100963512Y-85043533D01*
X100962885Y-85043052D01*
X100928095Y-85026298D01*
X100915933Y-85019576D01*
X100900327Y-85009770D01*
X100883520Y-84999209D01*
X100847398Y-84986570D01*
X100834553Y-84981250D01*
X100800121Y-84964669D01*
X100748261Y-84917847D01*
X100729947Y-84850420D01*
X100736213Y-84813949D01*
X100780999Y-84678797D01*
X100791500Y-84576009D01*
X100791499Y-83825992D01*
X100780999Y-83723203D01*
X100725814Y-83556666D01*
X100633712Y-83407344D01*
X100633711Y-83407342D01*
X100509657Y-83283288D01*
X100360334Y-83191186D01*
X100193797Y-83136000D01*
X100094141Y-83125819D01*
X100094122Y-83125818D01*
X100091009Y-83125500D01*
X100087860Y-83125500D01*
X98694140Y-83125500D01*
X98694120Y-83125500D01*
X98690992Y-83125501D01*
X98687860Y-83125820D01*
X98687858Y-83125821D01*
X98588203Y-83136000D01*
X98421665Y-83191186D01*
X98272342Y-83283288D01*
X98148288Y-83407342D01*
X98056186Y-83556665D01*
X98001000Y-83723202D01*
X97990819Y-83822858D01*
X97990817Y-83822878D01*
X97990500Y-83825991D01*
X97990500Y-83829139D01*
X97990500Y-83864500D01*
X97970815Y-83931539D01*
X97918011Y-83977294D01*
X97866500Y-83988500D01*
X96928325Y-83988500D01*
X96863229Y-83970039D01*
X96808278Y-83936145D01*
X96761554Y-83884198D01*
X96750156Y-83844489D01*
X96747368Y-83819745D01*
X96734725Y-83783611D01*
X96730876Y-83770250D01*
X96722360Y-83732939D01*
X96705753Y-83698455D01*
X96700432Y-83685608D01*
X96687790Y-83649480D01*
X96667423Y-83617066D01*
X96660697Y-83604895D01*
X96644092Y-83570414D01*
X96620225Y-83540486D01*
X96612177Y-83529143D01*
X96591816Y-83496738D01*
X96549971Y-83454893D01*
X96464262Y-83369184D01*
X91475818Y-78380739D01*
X91442333Y-78319417D01*
X91439499Y-78293059D01*
X91439499Y-76216439D01*
X91439499Y-76213128D01*
X91433091Y-76153517D01*
X91382796Y-76018669D01*
X91296546Y-75903454D01*
X91181331Y-75817204D01*
X91046483Y-75766909D01*
X90986873Y-75760500D01*
X90983550Y-75760500D01*
X88644439Y-75760500D01*
X88644420Y-75760500D01*
X88641128Y-75760501D01*
X88637848Y-75760853D01*
X88637840Y-75760854D01*
X88581515Y-75766909D01*
X88446669Y-75817204D01*
X88331454Y-75903454D01*
X88245204Y-76018668D01*
X88194910Y-76153515D01*
X88194909Y-76153517D01*
X88188500Y-76213127D01*
X88188500Y-76216448D01*
X88188500Y-76216449D01*
X88188500Y-76576500D01*
X88168815Y-76643539D01*
X88116011Y-76689294D01*
X88064500Y-76700500D01*
X86517572Y-76700500D01*
X86450533Y-76680815D01*
X86418306Y-76650811D01*
X86413548Y-76644456D01*
X86413546Y-76644455D01*
X86413546Y-76644454D01*
X86298331Y-76558204D01*
X86163483Y-76507909D01*
X86147076Y-76506145D01*
X86107166Y-76501854D01*
X86107165Y-76501853D01*
X86103873Y-76501500D01*
X86100550Y-76501500D01*
X84487439Y-76501500D01*
X84487420Y-76501500D01*
X84484128Y-76501501D01*
X84480848Y-76501853D01*
X84480840Y-76501854D01*
X84424515Y-76507909D01*
X84289669Y-76558204D01*
X84174454Y-76644454D01*
X84088204Y-76759668D01*
X84037909Y-76894516D01*
X84034176Y-76929241D01*
X84031500Y-76954127D01*
X84031500Y-76957448D01*
X84031500Y-76957449D01*
X84031500Y-78570560D01*
X84031500Y-78570578D01*
X84031501Y-78573872D01*
X84037909Y-78633483D01*
X84088204Y-78768331D01*
X84174454Y-78883546D01*
X84289669Y-78969796D01*
X84424517Y-79020091D01*
X84481610Y-79026229D01*
X84546159Y-79052965D01*
X84586008Y-79110357D01*
X84588503Y-79180182D01*
X84552851Y-79240272D01*
X84539478Y-79251092D01*
X84479380Y-79293173D01*
X84323174Y-79449379D01*
X84196466Y-79630338D01*
X84103106Y-79830548D01*
X84045929Y-80043934D01*
X84026676Y-80264000D01*
X84045929Y-80484065D01*
X84103106Y-80697451D01*
X84166807Y-80834058D01*
X84196466Y-80897662D01*
X84323174Y-81078620D01*
X84403292Y-81158738D01*
X84420873Y-81176319D01*
X84454357Y-81237642D01*
X84449373Y-81307334D01*
X84420873Y-81351681D01*
X84323172Y-81449382D01*
X84196466Y-81630338D01*
X84103106Y-81830548D01*
X84045929Y-82043934D01*
X84026676Y-82264000D01*
X84045929Y-82484065D01*
X84045930Y-82484068D01*
X84103106Y-82697450D01*
X84196466Y-82897662D01*
X84323174Y-83078620D01*
X84479380Y-83234826D01*
X84660338Y-83361534D01*
X84860550Y-83454894D01*
X85073932Y-83512070D01*
X85294000Y-83531323D01*
X85514068Y-83512070D01*
X85727450Y-83454894D01*
X85927662Y-83361534D01*
X86108620Y-83234826D01*
X86264826Y-83078620D01*
X86391534Y-82897662D01*
X86484894Y-82697450D01*
X86542070Y-82484068D01*
X86561323Y-82264000D01*
X86542070Y-82043932D01*
X86484894Y-81830550D01*
X86391534Y-81630339D01*
X86264826Y-81449380D01*
X86167123Y-81351677D01*
X86133641Y-81290359D01*
X86138625Y-81220667D01*
X86167122Y-81176323D01*
X86264826Y-81078620D01*
X86391534Y-80897662D01*
X86484894Y-80697450D01*
X86542070Y-80484068D01*
X86561323Y-80264000D01*
X86542070Y-80043932D01*
X86484894Y-79830550D01*
X86391534Y-79630339D01*
X86264826Y-79449380D01*
X86108620Y-79293174D01*
X86048519Y-79251091D01*
X86004896Y-79196517D01*
X85997702Y-79127018D01*
X86029225Y-79064663D01*
X86089454Y-79029249D01*
X86106387Y-79026228D01*
X86163483Y-79020091D01*
X86192366Y-79009318D01*
X86235700Y-79001500D01*
X88064501Y-79001500D01*
X88131540Y-79021185D01*
X88177295Y-79073989D01*
X88188501Y-79125499D01*
X88188501Y-79488872D01*
X88188853Y-79492152D01*
X88188854Y-79492159D01*
X88194909Y-79548484D01*
X88209553Y-79587745D01*
X88245204Y-79683331D01*
X88331454Y-79798546D01*
X88446669Y-79884796D01*
X88581517Y-79935091D01*
X88641127Y-79941500D01*
X90721059Y-79941499D01*
X90788098Y-79961184D01*
X90808740Y-79977818D01*
X94856245Y-84025323D01*
X94889730Y-84086646D01*
X94884746Y-84156338D01*
X94874103Y-84178100D01*
X94827186Y-84254165D01*
X94772000Y-84420702D01*
X94761819Y-84520358D01*
X94761817Y-84520378D01*
X94761500Y-84523491D01*
X94761500Y-84526638D01*
X94761500Y-84526639D01*
X94761500Y-85145358D01*
X94761500Y-85145377D01*
X94761501Y-85148508D01*
X94761820Y-85151640D01*
X94761821Y-85151641D01*
X94772000Y-85251296D01*
X94827186Y-85417834D01*
X94919288Y-85567157D01*
X95012950Y-85660819D01*
X95046435Y-85722142D01*
X95041451Y-85791834D01*
X95012950Y-85836181D01*
X94944950Y-85904181D01*
X94883627Y-85937666D01*
X94857269Y-85940500D01*
X94322731Y-85940500D01*
X94255692Y-85920815D01*
X94235050Y-85904181D01*
X94136657Y-85805788D01*
X93987334Y-85713686D01*
X93820797Y-85658500D01*
X93721141Y-85648319D01*
X93721122Y-85648318D01*
X93718009Y-85648000D01*
X93714860Y-85648000D01*
X92721140Y-85648000D01*
X92721120Y-85648000D01*
X92717992Y-85648001D01*
X92714860Y-85648320D01*
X92714858Y-85648321D01*
X92615203Y-85658500D01*
X92448665Y-85713686D01*
X92299342Y-85805788D01*
X92175288Y-85929842D01*
X92083186Y-86079165D01*
X92028000Y-86245702D01*
X92017819Y-86345358D01*
X92017817Y-86345378D01*
X92017500Y-86348491D01*
X92017500Y-86351638D01*
X92017500Y-86351639D01*
X92017500Y-86970358D01*
X92017500Y-86970377D01*
X92017501Y-86973508D01*
X92017820Y-86976640D01*
X92017821Y-86976641D01*
X92028000Y-87076296D01*
X92083186Y-87242834D01*
X92175288Y-87392157D01*
X92299342Y-87516211D01*
X92299344Y-87516212D01*
X92448666Y-87608314D01*
X92560017Y-87645212D01*
X92615202Y-87663499D01*
X92714858Y-87673680D01*
X92714859Y-87673680D01*
X92717991Y-87674000D01*
X93718008Y-87673999D01*
X93820797Y-87663499D01*
X93987334Y-87608314D01*
X94033732Y-87579695D01*
X94065728Y-87559961D01*
X94130824Y-87541500D01*
X95049176Y-87541500D01*
X95114272Y-87559961D01*
X95164662Y-87591041D01*
X95192666Y-87608314D01*
X95304016Y-87645212D01*
X95359202Y-87663499D01*
X95458858Y-87673680D01*
X95458859Y-87673680D01*
X95461991Y-87674000D01*
X96462008Y-87673999D01*
X96564797Y-87663499D01*
X96731334Y-87608314D01*
X96880656Y-87516212D01*
X97004712Y-87392156D01*
X97096814Y-87242834D01*
X97151999Y-87076297D01*
X97162500Y-86973509D01*
X97162499Y-86649499D01*
X97182183Y-86582461D01*
X97234987Y-86536706D01*
X97286499Y-86525500D01*
X100151060Y-86525500D01*
X100218099Y-86545185D01*
X100238741Y-86561819D01*
X100788184Y-87111262D01*
X100915738Y-87238816D01*
X100940318Y-87254261D01*
X100948145Y-87259179D01*
X100959483Y-87267224D01*
X100971844Y-87277081D01*
X100989414Y-87291092D01*
X101023899Y-87307699D01*
X101036069Y-87314425D01*
X101068480Y-87334790D01*
X101104597Y-87347428D01*
X101117441Y-87352748D01*
X101148499Y-87367703D01*
X101151939Y-87369360D01*
X101189276Y-87377881D01*
X101202613Y-87381725D01*
X101238745Y-87394368D01*
X101276776Y-87398653D01*
X101290481Y-87400981D01*
X101327806Y-87409500D01*
X101327807Y-87409500D01*
X102898749Y-87409500D01*
X102901194Y-87409500D01*
X102938069Y-87406598D01*
X103095898Y-87360744D01*
X103237365Y-87277081D01*
X103353581Y-87160865D01*
X103353765Y-87160552D01*
X103355697Y-87158748D01*
X103364658Y-87149788D01*
X103364964Y-87150094D01*
X103404828Y-87112868D01*
X103473569Y-87100360D01*
X103538160Y-87127001D01*
X103567229Y-87160544D01*
X103567235Y-87160555D01*
X103567419Y-87160865D01*
X103683635Y-87277081D01*
X103825102Y-87360744D01*
X103982927Y-87406597D01*
X103982931Y-87406598D01*
X104019806Y-87409500D01*
X104546085Y-87409500D01*
X104559967Y-87410279D01*
X104598000Y-87414565D01*
X104636032Y-87410279D01*
X104649915Y-87409500D01*
X105173749Y-87409500D01*
X105176194Y-87409500D01*
X105213069Y-87406598D01*
X105370898Y-87360744D01*
X105512365Y-87277081D01*
X105628581Y-87160865D01*
X105712244Y-87019398D01*
X105758098Y-86861569D01*
X105761000Y-86824694D01*
X105761000Y-86583500D01*
X105780685Y-86516461D01*
X105833489Y-86470706D01*
X105885000Y-86459500D01*
X106405195Y-86459500D01*
X106416009Y-86457031D01*
X106442520Y-86450980D01*
X106456197Y-86448655D01*
X106494255Y-86444368D01*
X106530399Y-86431720D01*
X106543721Y-86427882D01*
X106581061Y-86419360D01*
X106615549Y-86402750D01*
X106628391Y-86397431D01*
X106664522Y-86384789D01*
X106696932Y-86364423D01*
X106709103Y-86357697D01*
X106728220Y-86348491D01*
X106743587Y-86341091D01*
X106773515Y-86317222D01*
X106784834Y-86309190D01*
X106817262Y-86288816D01*
X106944816Y-86161262D01*
X107003375Y-86102703D01*
X107003388Y-86102688D01*
X107793259Y-85312818D01*
X107854582Y-85279333D01*
X107880940Y-85276499D01*
X108469859Y-85276499D01*
X108473008Y-85276499D01*
X108575797Y-85265999D01*
X108742334Y-85210814D01*
X108891656Y-85118712D01*
X109015712Y-84994656D01*
X109107814Y-84845334D01*
X109162999Y-84678797D01*
X109173500Y-84576009D01*
X109173499Y-83825992D01*
X109162999Y-83723203D01*
X109107814Y-83556666D01*
X109015712Y-83407344D01*
X109015711Y-83407342D01*
X108891657Y-83283288D01*
X108742335Y-83191186D01*
X108658495Y-83163404D01*
X108601050Y-83123630D01*
X108574228Y-83059114D01*
X108573500Y-83045698D01*
X108573500Y-81570803D01*
X108564982Y-81533488D01*
X108562655Y-81519800D01*
X108558368Y-81481745D01*
X108545724Y-81445610D01*
X108541875Y-81432249D01*
X108541324Y-81429837D01*
X108533359Y-81394939D01*
X108516754Y-81360458D01*
X108511433Y-81347614D01*
X108498789Y-81311478D01*
X108478418Y-81279058D01*
X108471698Y-81266899D01*
X108455091Y-81232413D01*
X108455090Y-81232412D01*
X108455090Y-81232411D01*
X108431225Y-81202486D01*
X108423177Y-81191143D01*
X108402816Y-81158738D01*
X108292701Y-81048623D01*
X108292700Y-81048621D01*
X107516819Y-80272740D01*
X107483334Y-80211417D01*
X107480500Y-80185059D01*
X107480500Y-79425439D01*
X107500185Y-79358400D01*
X107552989Y-79312645D01*
X107561156Y-79309261D01*
X107672331Y-79267796D01*
X107787546Y-79181546D01*
X107873796Y-79066331D01*
X107915257Y-78955165D01*
X107957128Y-78899233D01*
X108022592Y-78874816D01*
X108031439Y-78874500D01*
X109558502Y-78874500D01*
X109625541Y-78894185D01*
X109671296Y-78946989D01*
X109672488Y-78949682D01*
X109701679Y-79017848D01*
X109729167Y-79058461D01*
X109822157Y-79195856D01*
X109974143Y-79347842D01*
X110020429Y-79379169D01*
X110152152Y-79468321D01*
X110349741Y-79552934D01*
X110559774Y-79598624D01*
X110576707Y-79599632D01*
X110606202Y-79601390D01*
X110606208Y-79601390D01*
X110608052Y-79601500D01*
X110609881Y-79601500D01*
X113318119Y-79601500D01*
X113319948Y-79601500D01*
X113321792Y-79601390D01*
X113321797Y-79601390D01*
X113342825Y-79600137D01*
X113368226Y-79598624D01*
X113578259Y-79552934D01*
X113775848Y-79468321D01*
X113953855Y-79347843D01*
X114105843Y-79195855D01*
X114200310Y-79056278D01*
X114254187Y-79011794D01*
X114323562Y-79003499D01*
X114386409Y-79034027D01*
X114422775Y-79093688D01*
X114427000Y-79125782D01*
X114427000Y-89920681D01*
X114407315Y-89987720D01*
X114354511Y-90033475D01*
X114304693Y-90044669D01*
X105160875Y-90169500D01*
X83456198Y-90169500D01*
X83389165Y-90149817D01*
X83343411Y-90097013D01*
X83333467Y-90027855D01*
X83362492Y-89964299D01*
X83416346Y-89928083D01*
X83447077Y-89917652D01*
X83711665Y-89787172D01*
X83956957Y-89623273D01*
X84178758Y-89428758D01*
X84373273Y-89206957D01*
X84537172Y-88961665D01*
X84667652Y-88697077D01*
X84762481Y-88417722D01*
X84820034Y-88128380D01*
X84839329Y-87834000D01*
X84820034Y-87539620D01*
X84762481Y-87250278D01*
X84667652Y-86970923D01*
X84537172Y-86706336D01*
X84373273Y-86461043D01*
X84178758Y-86239242D01*
X83956957Y-86044727D01*
X83819976Y-85953199D01*
X83715039Y-85883082D01*
X83715034Y-85883079D01*
X83711665Y-85880828D01*
X83708036Y-85879038D01*
X83708025Y-85879032D01*
X83450720Y-85752144D01*
X83450713Y-85752141D01*
X83447077Y-85750348D01*
X83441633Y-85748500D01*
X83171566Y-85656823D01*
X83171553Y-85656819D01*
X83167722Y-85655519D01*
X83163745Y-85654728D01*
X83163738Y-85654726D01*
X82882362Y-85598758D01*
X82882361Y-85598757D01*
X82878380Y-85597966D01*
X82874330Y-85597700D01*
X82874326Y-85597700D01*
X82588058Y-85578937D01*
X82584000Y-85578671D01*
X82579942Y-85578937D01*
X82293673Y-85597700D01*
X82293667Y-85597700D01*
X82289620Y-85597966D01*
X82285640Y-85598757D01*
X82285637Y-85598758D01*
X82004261Y-85654726D01*
X82004250Y-85654728D01*
X82000278Y-85655519D01*
X81996449Y-85656818D01*
X81996433Y-85656823D01*
X81724769Y-85749042D01*
X81724762Y-85749044D01*
X81720923Y-85750348D01*
X81717286Y-85752141D01*
X81717280Y-85752144D01*
X81459976Y-85879032D01*
X81459964Y-85879038D01*
X81456336Y-85880828D01*
X81452973Y-85883075D01*
X81452961Y-85883082D01*
X81214424Y-86042467D01*
X81214414Y-86042473D01*
X81211043Y-86044727D01*
X81207992Y-86047402D01*
X81207985Y-86047408D01*
X80992290Y-86236568D01*
X80992282Y-86236575D01*
X80989242Y-86239242D01*
X80986575Y-86242282D01*
X80986568Y-86242290D01*
X80797408Y-86457985D01*
X80797402Y-86457992D01*
X80794727Y-86461043D01*
X80792473Y-86464414D01*
X80792467Y-86464424D01*
X80633082Y-86702961D01*
X80633075Y-86702973D01*
X80630828Y-86706336D01*
X80629038Y-86709964D01*
X80629032Y-86709976D01*
X80502144Y-86967280D01*
X80502141Y-86967286D01*
X80500348Y-86970923D01*
X80499044Y-86974762D01*
X80499042Y-86974769D01*
X80406823Y-87246433D01*
X80406818Y-87246449D01*
X80405519Y-87250278D01*
X80404728Y-87254250D01*
X80404726Y-87254261D01*
X80352622Y-87516211D01*
X80347966Y-87539620D01*
X80347700Y-87543667D01*
X80347700Y-87543673D01*
X80343463Y-87608314D01*
X80328671Y-87834000D01*
X80347966Y-88128380D01*
X80348757Y-88132361D01*
X80348758Y-88132362D01*
X80404726Y-88413738D01*
X80404728Y-88413745D01*
X80405519Y-88417722D01*
X80406819Y-88421553D01*
X80406823Y-88421566D01*
X80499042Y-88693230D01*
X80500348Y-88697077D01*
X80502141Y-88700713D01*
X80502144Y-88700720D01*
X80629032Y-88958025D01*
X80629038Y-88958036D01*
X80630828Y-88961665D01*
X80794727Y-89206957D01*
X80989242Y-89428758D01*
X81211043Y-89623273D01*
X81456335Y-89787172D01*
X81459968Y-89788963D01*
X81459974Y-89788967D01*
X81717279Y-89915855D01*
X81720923Y-89917652D01*
X81751650Y-89928082D01*
X81808803Y-89968269D01*
X81835158Y-90032977D01*
X81822345Y-90101662D01*
X81774432Y-90152516D01*
X81711796Y-90169500D01*
X77340000Y-90169500D01*
X77272961Y-90149815D01*
X77227206Y-90097011D01*
X77216000Y-90045500D01*
X77216000Y-73147318D01*
X77235685Y-73080279D01*
X77288489Y-73034524D01*
X77338305Y-73023330D01*
X80822171Y-72975768D01*
X80889470Y-72994535D01*
X80935942Y-73046710D01*
X80946828Y-73115726D01*
X80918674Y-73179672D01*
X80917089Y-73181515D01*
X80797408Y-73317984D01*
X80797396Y-73317999D01*
X80794727Y-73321043D01*
X80792473Y-73324414D01*
X80792467Y-73324424D01*
X80633082Y-73562961D01*
X80633075Y-73562973D01*
X80630828Y-73566336D01*
X80629038Y-73569964D01*
X80629032Y-73569976D01*
X80502144Y-73827280D01*
X80502141Y-73827286D01*
X80500348Y-73830923D01*
X80499044Y-73834762D01*
X80499042Y-73834769D01*
X80406823Y-74106433D01*
X80406818Y-74106449D01*
X80405519Y-74110278D01*
X80404728Y-74114250D01*
X80404726Y-74114261D01*
X80348758Y-74395637D01*
X80347966Y-74399620D01*
X80328671Y-74694000D01*
X80347966Y-74988380D01*
X80348757Y-74992361D01*
X80348758Y-74992362D01*
X80404726Y-75273738D01*
X80404728Y-75273745D01*
X80405519Y-75277722D01*
X80406819Y-75281553D01*
X80406823Y-75281566D01*
X80499042Y-75553230D01*
X80500348Y-75557077D01*
X80502141Y-75560713D01*
X80502144Y-75560720D01*
X80629032Y-75818025D01*
X80629038Y-75818036D01*
X80630828Y-75821665D01*
X80633079Y-75825034D01*
X80633082Y-75825039D01*
X80762461Y-76018668D01*
X80794727Y-76066957D01*
X80870638Y-76153517D01*
X80920032Y-76209840D01*
X80989242Y-76288758D01*
X81211043Y-76483273D01*
X81323185Y-76558204D01*
X81427658Y-76628011D01*
X81456335Y-76647172D01*
X81459968Y-76648963D01*
X81459974Y-76648967D01*
X81684455Y-76759668D01*
X81720923Y-76777652D01*
X81920992Y-76845566D01*
X81996433Y-76871176D01*
X81996435Y-76871176D01*
X82000278Y-76872481D01*
X82289620Y-76930034D01*
X82584000Y-76949329D01*
X82878380Y-76930034D01*
X83167722Y-76872481D01*
X83447077Y-76777652D01*
X83711665Y-76647172D01*
X83956957Y-76483273D01*
X84178758Y-76288758D01*
X84373273Y-76066957D01*
X84537172Y-75821665D01*
X84667652Y-75557077D01*
X84762481Y-75277722D01*
X84820034Y-74988380D01*
X84839329Y-74694000D01*
X84820034Y-74399620D01*
X84762481Y-74110278D01*
X84667652Y-73830923D01*
X84537172Y-73566336D01*
X84373273Y-73321043D01*
X84209262Y-73134025D01*
X84179859Y-73070643D01*
X84189391Y-73001427D01*
X84234831Y-72948351D01*
X84300792Y-72928279D01*
X114301310Y-72518715D01*
X114368609Y-72537482D01*
G37*
%TD.AperFunction*%
%TA.AperFunction,Conductor*%
G36*
X103381865Y-85375839D02*
G01*
X103425629Y-85430304D01*
X103435000Y-85477594D01*
X103435000Y-85840405D01*
X103415315Y-85907444D01*
X103362511Y-85953199D01*
X103293353Y-85963143D01*
X103247879Y-85947137D01*
X103236656Y-85940500D01*
X103139568Y-85883082D01*
X103095897Y-85857255D01*
X102938072Y-85811402D01*
X102903628Y-85808691D01*
X102903614Y-85808690D01*
X102901194Y-85808500D01*
X102898749Y-85808500D01*
X101800940Y-85808500D01*
X101733901Y-85788815D01*
X101713259Y-85772181D01*
X101662259Y-85721181D01*
X101628774Y-85659858D01*
X101633758Y-85590166D01*
X101675630Y-85534233D01*
X101741094Y-85509816D01*
X101749940Y-85509500D01*
X102271085Y-85509500D01*
X102284967Y-85510279D01*
X102323000Y-85514565D01*
X102361032Y-85510279D01*
X102374915Y-85509500D01*
X102898749Y-85509500D01*
X102901194Y-85509500D01*
X102938069Y-85506598D01*
X103095898Y-85460744D01*
X103237365Y-85377081D01*
X103237369Y-85377076D01*
X103247878Y-85370862D01*
X103315602Y-85353679D01*
X103381865Y-85375839D01*
G37*
%TD.AperFunction*%
%TD*%
M02*
